<svg preserveAspectRatio="none" viewBox="0 0 801 94" fill="none" xmlns="http://www.w3.org/2000/svg" class="_icon_4zyqr_41"><g filter="url(#1_a)"><path d="M765.7 8.7H35.3C20.6 8.7 8.7 20.7 8.7 35.4V57.6C8.7 72.3 20.6 84.3 35.3 84.3H765.6C780.3 84.3 792.2 72.3 792.2 57.6V35.5C792.3 20.7 780.3 8.7 765.7 8.7ZM787 59.8C787 69.7 777.7 79 767.9 79H33.1C23.3 79 14 69.7 14 59.8V33.2C14 23.3 23.3 14 33.1 14H767.8C777.6 14 786.9 25.4 786.9 31.9V59.8H787Z" fill="url(#2_b)"></path><path opacity="0.49" d="M35.3 13.1H630.1C631.1 11.9 742.3 10.6 743 9.3H35.3C20.7 9.3 8.7 21.3 8.7 36V36.8C8.8 36.8 8.8 36.8 8.9 36.8C10.4 23.5 21.7 13.1 35.3 13.1Z" fill="white"></path></g><defs><filter id="1_a" x="8.7" y="8.7" width="787.501" height="79.6" filterUnits="userSpaceOnUse" color-interpolation-filters="sRGB"><feFlood flood-opacity="0" result="BackgroundImageFix"></feFlood><feColorMatrix in="SourceAlpha" type="matrix" values="0 0 0 0 0 0 0 0 0 0 0 0 0 0 0 0 0 0 127 0" result="hardAlpha"></feColorMatrix><feOffset dx="4" dy="4"></feOffset><feComposite in2="hardAlpha" operator="out"></feComposite><feColorMatrix type="matrix" values="0 0 0 0 0 0 0 0 0 0 0 0 0 0 0 0 0 0 1 0"></feColorMatrix><feBlend mode="normal" in2="BackgroundImageFix" result="effect1_dropShadow_8_4"></feBlend><feBlend mode="normal" in="SourceGraphic" in2="effect1_dropShadow_8_4" result="shape"></feBlend></filter><linearGradient id="2_b" x1="400.507" y1="85.5094" x2="400.507" y2="21.8195" gradientUnits="userSpaceOnUse"><stop stop-color="#FFB600"></stop><stop offset="0.2" stop-color="#FFE609"></stop><stop offset="0.35" stop-color="white"></stop><stop offset="0.75" stop-color="#FFB600"></stop><stop offset="1" stop-color="#FFB600"></stop></linearGradient></defs></svg>